<?xml version="1.0" encoding="UTF-8" standalone="no"?>
<svg
   xmlns:dc="http://purl.org/dc/elements/1.1/"
   xmlns:cc="http://creativecommons.org/ns#"
   xmlns:rdf="http://www.w3.org/1999/02/22-rdf-syntax-ns#"
   xmlns:svg="http://www.w3.org/2000/svg"
   xmlns="http://www.w3.org/2000/svg"
   viewBox="0 0 228.75 208.8"
   height="208.8"
   width="228.75"
   xml:space="preserve"
   version="1.1"
   id="svg2"><metadata
     id="metadata8"><rdf:RDF><cc:Work
         rdf:about=""><dc:format>image/svg+xml</dc:format><dc:type
           rdf:resource="http://purl.org/dc/dcmitype/StillImage" /><dc:title></dc:title></cc:Work></rdf:RDF></metadata><defs
     id="defs6" /><g
     transform="matrix(1.25,0,0,-1.25,0,208.8)"
     id="g10"><g
       transform="scale(0.1,0.1)"
       id="g12"><path
         id="path14"
         style="fill:#68b1e4;fill-opacity:1;fill-rule:nonzero;stroke:none"
         d="m 1821.7,1653 c -8.12,10.89 -21.09,17.4 -34.65,17.4 -7.01,0 -13.92,-1.77 -19.98,-5.08 -254.16,-139.13 -548.81,-212.72 -852.066,-212.78 -303.27,0.06 -597.899,73.65 -852.0548,212.77 -6.0586,3.32 -12.9648,5.08 -19.9726,5.08 -13.586,0 -26.5391,-6.5 -34.64847,-17.36 -12.03126,-15.99 -12.41016,-42.83 8.08597,-58.82 127.2889,-94.91 267.6059,-169 417.0629,-219.66 154.918,-52.56 316.91,-79.25 481.468,-79.32 l 0.118,0 c 164.567,0.07 326.557,26.76 481.467,79.32 149.47,50.68 289.78,124.75 417.24,219.77 20.33,15.89 19.94,42.73 7.93,58.68" /><path
         id="path16"
         style="fill:#68b1e4;fill-opacity:1;fill-rule:nonzero;stroke:none"
         d="m 1529.59,1256.68 c -6.05,4.59 -13.33,6.98 -20.71,6.98 -4.09,0 -8.23,-0.75 -12.16,-2.25 -73.67,-28.17 -148.47,-49.57 -216.76,-65.47 -13.92,-3.25 -25.17,-13.59 -29.84,-26.01 -49.75,-136.27 -176.78,-266.024 -310.057,-401.942 -5.352,-5.078 -12.844,-11.777 -25.04,-11.777 -12.168,0 -19.589,6.484 -25.039,11.777 -133.269,135.918 -260.3,265.212 -310.054,401.502 -4.668,12.4 -15.926,22.75 -29.836,26 -68.321,15.92 -143.321,37.97 -216.883,66.14 -3.953,1.5 -8.09,2.25 -12.199,2.25 -7.371,0 -14.516,-2.32 -20.555,-6.93 -9.445,-7.2 -14.336,-18.88 -13.223,-30.11 11.289,-113.32 56.059,-224.09 136.871,-340.18 C 500.063,777.508 599.137,676.492 694.934,578.789 871.434,398.77 1038.17,228.738 1052.8,31.5703 1054.11,13.7891 1068.93,0 1086.8,0 l 207.36,0 c 9.34,0 18.26,3.83984 24.71,10.6016 6.43,6.7695 9.82,15.8476 9.36,25.1875 -6.53,131.8199 -56.14,263.8319 -151.66,403.5309 -20.02,29.289 -41.47,57.789 -63.89,85.68 -9.1,11.359 -5.29,25.469 1.68,32.578 6.88,7.063 13.81,14.094 20.76,21.211 95.8,97.715 194.86,198.719 270.84,307.871 80.8,116.1 125.57,226.23 136.86,339.53 1.13,11.38 -4.05,23.47 -13.23,30.49" /><path
         id="path18"
         style="fill:#68b1e4;fill-opacity:1;fill-rule:nonzero;stroke:none"
         d="m 692.508,425.43 c -4.906,5.129 -12.11,10.371 -24.211,10.371 -15.477,0 -24.664,-10.699 -28.133,-16.012 C 552.941,287.07 507.895,161.801 501.668,35.9102 c -0.457,-9.2813 2.965,-18.5 9.395,-25.2891 C 517.5,3.89063 526.543,0 535.863,0 l 207.012,0 c 17.805,0 32.813,13.9414 34.125,31.6992 4.508,60.6719 23.398,121.4918 57.781,185.4028 11.914,22.109 2.657,42.878 -4.203,51.757 -34.121,44.371 -75.91,91.7 -138.07,156.571" /><path
         id="path20"
         style="fill:#68b1e4;fill-opacity:1;fill-rule:nonzero;stroke:none"
         d="m 915.219,1155.08 c 64.98,0 102.671,3.91 115.921,3.91 16.03,0 31.36,-13.14 31.36,-31.54 0,-5.38 -1.27,-9.21 -2.53,-12.6 -8.62,-23.05 -47.9,-105.94 -121.021,-177.057 -8.203,-7.969 -17.5,-9.465 -23.906,-9.465 l -0.078,0 c -6.387,0 -15.684,1.496 -23.879,9.465 -73.129,71.117 -112.422,154.007 -121.02,177.057 -1.269,3.39 -2.539,7.22 -2.539,12.6 0,18.4 15.34,31.54 31.383,31.54 13.235,0 50.922,-3.91 115.879,-3.91 l 0.43,0" /></g></g></svg>